<?xml version="1.0" encoding="utf-8"?>
<!-- Generator: Adobe Illustrator 23.0.2, SVG Export Plug-In . SVG Version: 6.00 Build 0)  -->
<svg version="1.1" id="Layer_1" xmlns="http://www.w3.org/2000/svg" xmlns:xlink="http://www.w3.org/1999/xlink" x="0px" y="0px"
	 viewBox="0 0 218.7 105.1" style="enable-background:new 0 0 218.7 105.1;" xml:space="preserve">
<style type="text/css">
	.st0{fill:#89AF39;}
	.st1{fill:#222221;}
</style>
<g>
	<polygon class="st0" points="63.4,84.4 59.5,84.4 59.5,70.6 73.5,70.6 73.5,84.4 69.6,84.4 69.6,73.3 63.4,73.3 63.4,84.4 	"/>
	<path class="st0" d="M78.8,79.4c0-2.8,1.7-3.3,2.8-3.3c1.1,0,2.8,0.6,2.8,3.3c0,1.7-0.7,3.4-2.8,3.4C79.5,82.7,78.8,81.1,78.8,79.4
		L78.8,79.4z M75.4,74.4L75.4,74.4V88H79v-4.7c1.2,1.3,3.2,1.4,3.6,1.4c3.4,0,5.5-2.2,5.5-5.3c0-3.3-2.1-5.4-5.4-5.4
		c-0.8,0-2.5,0.1-3.9,1.6h-0.1l0-1.2H75.4L75.4,74.4z"/>
	<path class="st0" d="M97,83.2c-1.3,1.2-2.6,1.6-4,1.6c-3.9,0-4-2.9-4-4.1v-6.2h3.6v5.8c0,2,0.7,2.6,2,2.6c2.3,0,2.4-2,2.4-2.7v-5.6
		h3.6v10H97V83.2L97,83.2z"/>
	<path class="st0" d="M105.7,76.4h1.9c1,0,1.9,0.2,1.9,1c0,0.9-1.4,0.9-2,0.9h-1.9V76.4L105.7,76.4z M102.1,74.4L102.1,74.4v10h7.1
		c2.6,0,4.4-0.5,4.4-2.6c0-1.6-0.9-2.3-2.9-2.6v-0.1c1.3-0.2,2.4-1,2.4-2.3c0-2.4-2.8-2.4-3.9-2.4H102.1L102.1,74.4z M105.7,80.2
		L105.7,80.2h2.2c1.7,0,2,0.5,2,1.2c0,0.4-0.2,1-2,1h-2.2V80.2L105.7,80.2z"/>
	<path class="st0" d="M122.3,80.2c0,2-1.7,2.5-2.6,2.5c-0.7,0-1.8-0.2-1.8-1.2c0-1.1,1.3-1.3,2.1-1.4c1.4-0.2,1.3-0.1,2.4-0.5V80.2
		L122.3,80.2z M118.2,77.6L118.2,77.6c0-1.5,1.6-1.6,2.2-1.6c0.4,0,1.9,0,1.9,1.3c0,0.1,0,0.2,0,0.3c-0.1,1-1,0.8-3.7,1.1
		c-2.2,0.3-4.5,0.8-4.5,3.1c0,0.8,0.4,2.9,4.2,2.9c1.5,0,3.1-0.4,4-1.4h0.1l0.3,1h3.8v-0.2c-0.7-0.1-0.7-0.8-0.7-1.9l0.1-4.6
		c0-1.2-0.1-3.7-5.5-3.7c-1.3,0-5.5,0.1-5.6,3.6H118.2L118.2,77.6z"/>
	<polygon class="st0" points="126.3,76.4 126.3,74.4 137.8,74.4 137.8,76.4 133.8,76.4 133.8,84.4 130.2,84.4 130.2,76.4 
		126.3,76.4 	"/>
	<path class="st0" d="M142.3,78.4h3.2c0.9,0,2.8,0.1,2.8,1.7c0,1.3-1.4,1.6-2.9,1.6h-3.2V78.4L142.3,78.4z M142.3,73.3L142.3,73.3
		h8.9v-2.7h-12.8v13.7h7.9c3.8,0,6.3-1.3,6.3-4.1c0-4.4-4.9-4.5-6.3-4.5h-4V73.3L142.3,73.3z"/>
	<path class="st0" d="M161.4,80.2c0,2-1.7,2.5-2.6,2.5c-0.7,0-1.8-0.2-1.8-1.2c0-1.1,1.3-1.3,2.1-1.4c1.4-0.2,1.3-0.1,2.4-0.5V80.2
		L161.4,80.2z M157.2,77.6L157.2,77.6c0-1.5,1.6-1.6,2.2-1.6c0.4,0,1.9,0,1.9,1.3c0,0.1,0,0.2,0,0.3c-0.1,1-1,0.8-3.7,1.1
		c-2.2,0.3-4.5,0.8-4.5,3.1c0,0.8,0.4,2.9,4.2,2.9c1.5,0,3.1-0.4,4-1.4h0.1l0.3,1h3.8v-0.2c-0.7-0.1-0.7-0.8-0.7-1.9l0.1-4.6
		c0-1.2-0.1-3.7-5.5-3.7c-1.3,0-5.5,0.1-5.6,3.6H157.2L157.2,77.6z"/>
	<polygon class="st0" points="170.1,84.4 166.5,84.4 166.5,74.4 170.1,74.4 170.1,78.1 174.4,78.1 174.4,74.4 177.9,74.4 
		177.9,84.4 174.4,84.4 174.4,80.1 170.1,80.1 170.1,84.4 	"/>
	<polygon class="st0" points="187,74.4 191,74.4 186,79.1 191.2,84.4 187,84.4 183.1,80 183.1,80 183.1,84.4 179.5,84.4 179.5,74.4 
		183.1,74.4 183.1,78.4 183.1,78.4 187,74.4 	"/>
	<polygon points="33.5,84.4 42.5,84.4 42.5,75.4 33.5,75.4 33.5,84.4 	"/>
	<path class="st0" d="M33.5,61.5v11.2h2.4c6.2,0,9.4,3.2,9.4,9.4v2.4h11.2V61.5H33.5L33.5,61.5z M51.7,66.2L51.7,66.2
		c0,3,0,10.4,0,13.5c-0.9,0-1,0-1.8,0c-0.8-6.7-5-10.8-11.6-11.6c0-0.8,0-1,0-1.8C41.3,66.2,48.7,66.2,51.7,66.2L51.7,66.2z"/>
</g>
<g>
	<polygon class="st1" points="15.4,44.9 28.1,44.9 28.1,32.2 15.4,32.2 15.4,44.9 	"/>
	<polygon class="st0" points="57.6,44.9 52.1,44.9 52.1,25.4 71.9,25.4 71.9,44.9 66.4,44.9 66.4,29.2 57.6,29.2 57.6,44.9 	"/>
	<path class="st0" d="M79.4,37.8c0-3.9,2.4-4.7,4-4.7c1.5,0,3.9,0.8,3.9,4.7c0,2.4-1,4.8-3.9,4.8C80.4,42.6,79.4,40.2,79.4,37.8
		L79.4,37.8z M74.6,30.8L74.6,30.8V50h5.1v-6.6c1.7,1.8,4.5,2,5.1,2c4.8,0,7.8-3.1,7.8-7.5c0-4.7-2.9-7.6-7.7-7.6
		c-1.2,0-3.5,0.2-5.5,2.2h-0.1l0-1.7H74.6L74.6,30.8z"/>
	<path class="st0" d="M105.1,43.2c-1.9,1.7-3.7,2.2-5.7,2.2c-5.5,0-5.7-4.1-5.7-5.8v-8.8h5.1v8.2c0,2.8,1,3.6,2.8,3.6
		c3.2,0,3.4-2.9,3.4-3.9v-7.9h5.1v14.1h-5.1V43.2L105.1,43.2z"/>
	<path class="st0" d="M117.4,33.6h2.7c1.4,0,2.7,0.2,2.7,1.4c0,1.3-1.9,1.3-2.8,1.3h-2.6V33.6L117.4,33.6z M112.4,30.8L112.4,30.8
		v14.1h10.1c3.7,0,6.2-0.7,6.2-3.6c0-2.2-1.2-3.2-4-3.7v-0.1c1.8-0.2,3.4-1.4,3.4-3.3c0-3.4-4-3.4-5.6-3.4H112.4L112.4,30.8z
		 M117.4,38.9L117.4,38.9h3.1c2.4,0,2.9,0.7,2.9,1.7c0,0.6-0.3,1.4-2.8,1.4h-3.2V38.9L117.4,38.9z"/>
	<path class="st0" d="M140.9,39c0,2.8-2.5,3.5-3.7,3.5c-0.9,0-2.6-0.3-2.6-1.6c0-1.6,1.9-1.9,3-2c2-0.3,1.8-0.2,3.3-0.7V39L140.9,39
		z M135,35.3L135,35.3c0-2.1,2.2-2.2,3.1-2.2c0.6,0,2.7,0,2.7,1.9c0,0.1,0,0.3,0,0.4c-0.1,1.4-1.4,1.1-5.2,1.6
		c-3.1,0.4-6.3,1.2-6.3,4.4c0,1.2,0.5,4.1,5.9,4.1c2.1,0,4.3-0.5,5.7-1.9h0.1l0.4,1.4h5.3v-0.2c-1-0.2-1-1.1-1-2.7l0.1-6.4
		c0-1.6-0.1-5.3-7.8-5.3c-1.8,0-7.7,0.2-8,5.1H135L135,35.3z"/>
	<polygon class="st0" points="146.5,33.6 146.5,30.8 162.7,30.8 162.7,33.6 157.1,33.6 157.1,44.9 152,44.9 152,33.6 146.5,33.6 	
		"/>
	<path class="st0" d="M15.4,12.5v15.8h3.4c8.8,0,13.3,4.5,13.3,13.3v3.4h15.8V12.5H15.4L15.4,12.5z M41.1,19.2L41.1,19.2
		c0,4.3,0,14.7,0,19c-1.2,0-1.4,0-2.6,0c-1.1-9.4-7-15.3-16.4-16.4c0-1.2,0-1.4,0-2.6C26.4,19.2,36.8,19.2,41.1,19.2L41.1,19.2z"/>
	<g>
		<path d="M179.6,40.5v4h-15c0.2-1.5,0.7-2.9,1.5-4.3s2.4-3.1,4.8-5.4c1.9-1.8,3.1-3,3.6-3.7c0.6-0.9,0.9-1.8,0.9-2.6
			c0-1-0.3-1.7-0.8-2.2c-0.5-0.5-1.2-0.8-2.1-0.8c-0.9,0-1.6,0.3-2.1,0.8s-0.8,1.4-0.9,2.7l-4.3-0.4c0.3-2.4,1.1-4.1,2.4-5.1
			c1.3-1,3-1.5,5-1.5c2.2,0,3.9,0.6,5.2,1.8s1.9,2.7,1.9,4.4c0,1-0.2,2-0.5,2.9c-0.4,0.9-0.9,1.9-1.7,2.9c-0.5,0.7-1.5,1.6-2.8,2.9
			c-1.4,1.2-2.2,2.1-2.6,2.5c-0.4,0.4-0.7,0.8-0.9,1.2H179.6z"/>
		<path d="M190.9,44.5V40h-9.2v-3.8l9.7-14.2h3.6v14.2h2.8V40H195v4.5H190.9z M190.9,36.2v-7.6l-5.1,7.6H190.9z"/>
	</g>
</g>
</svg>
